<svg width="64" height="64" viewBox="0 0 64 64" fill="none" xmlns="http://www.w3.org/2000/svg">
<g clip-path="url(#clip0_14_32)">
<path d="M36.7908 57.6757C35.6938 58.681 34.4508 59.3435 33.0618 59.6632C31.6754 59.9244 30.3031 59.8645 28.9447 59.4834C27.5889 59.0439 26.4084 58.2756 25.4031 57.1785L6.1353 36.1514C5.13002 35.0543 4.48151 33.8266 4.18976 32.4681C3.90056 31.0512 3.96048 29.6789 4.36952 28.351C4.7811 26.9647 5.53543 25.769 6.6325 24.7637L27.6596 5.49584C28.7262 4.51849 29.968 3.88521 31.3848 3.59601C32.7738 3.27634 34.1461 3.33626 35.5019 3.77577C36.8603 4.15688 38.0421 4.89597 39.0474 5.99304L58.3152 27.0202C59.3205 28.1173 59.9677 29.3742 60.2569 30.7911C60.5487 32.1496 60.4887 33.5219 60.0772 34.9082C59.6376 36.264 58.8846 37.4306 57.818 38.4079L36.7908 57.6757ZM32.4042 52.6133L53.1571 33.5968C53.4619 33.3175 53.6231 32.9735 53.641 32.5647C53.6309 32.1254 53.4863 31.7534 53.207 31.4487L34.1905 10.6958C33.9113 10.3911 33.5672 10.2298 33.1585 10.2119C32.7217 10.1636 32.351 10.2791 32.0463 10.5583L11.2934 29.5748C10.9886 29.8541 10.8261 30.2273 10.8057 30.6945C10.7878 31.1033 10.9185 31.46 11.1978 31.7648L30.2143 52.5177C30.4935 52.8224 30.8515 52.9989 31.2882 53.0473C31.7275 53.0372 32.0995 52.8925 32.4042 52.6133Z" fill="#454545"/>
<path d="M32.0488 58.1803C30.7938 58.9798 29.4547 59.4163 28.0313 59.49C26.6206 59.5065 25.2795 59.2092 24.008 58.598C22.7491 57.9298 21.7199 56.9681 20.9204 55.7132L5.59664 31.6597C4.79714 30.4047 4.37168 29.083 4.32026 27.6945C4.28149 26.2489 4.57881 24.9078 5.21221 23.6711C5.85827 22.3774 6.80878 21.3308 8.06374 20.5313L32.1173 5.20749C33.3374 4.4302 34.6702 4.02217 36.1158 3.9834C37.5391 3.90977 38.8802 4.20709 40.1391 4.87535C41.4106 5.48655 42.4461 6.41963 43.2456 7.67459L58.5694 31.7281C59.3689 32.9831 59.7881 34.3333 59.8268 35.7789C59.8783 37.1674 59.5809 38.5085 58.9349 39.8022C58.2666 41.0611 57.3224 42.0792 56.1023 42.8565L32.0488 58.1803ZM28.6079 52.433L52.3477 37.3091C52.6963 37.087 52.9149 36.7762 53.0034 36.3767C53.0698 35.9424 52.9919 35.5509 52.7698 35.2023L37.6459 11.4625C37.4239 11.1139 37.1131 10.8954 36.7136 10.8068C36.2919 10.6834 35.9068 10.7327 35.5582 10.9548L11.8184 26.0787C11.4698 26.3008 11.2449 26.6401 11.1436 27.0966C11.0551 27.4961 11.1218 27.8702 11.3439 28.2188L26.4678 51.9585C26.6899 52.3072 27.0118 52.5432 27.4335 52.6666C27.8678 52.7329 28.2593 52.6551 28.6079 52.433Z" fill="#868686"/>
<path d="M27.2914 57.8537C25.9166 58.4232 24.522 58.6206 23.1075 58.4459C21.7154 58.2173 20.4463 57.6916 19.3002 56.8689C18.1765 55.9922 17.3299 54.8664 16.7605 53.4917L5.84634 27.1427C5.27691 25.7679 5.08742 24.3924 5.27789 23.0161C5.49073 21.5857 6.01641 20.3166 6.85494 19.2087C7.71583 18.0469 8.83365 17.1812 10.2084 16.6118L36.5574 5.69762C37.894 5.14401 39.2774 4.97362 40.7077 5.18646C42.1222 5.36111 43.3914 5.88679 44.5151 6.7635C45.6611 7.58621 46.5189 8.68493 47.0883 10.0597L58.0025 36.4087C58.5719 37.7834 58.7502 39.186 58.5373 40.6163C58.3469 41.9926 57.8212 43.2617 56.9603 44.4236C56.0836 45.5473 54.977 46.386 53.6404 46.9396L27.2914 57.8537ZM24.9008 51.5963L50.9061 40.8245C51.288 40.6663 51.5572 40.3982 51.7138 40.0202C51.8546 39.604 51.8459 39.2049 51.6877 38.823L40.9159 12.8177C40.7578 12.4358 40.4896 12.1666 40.1116 12.01C39.7178 11.8152 39.3299 11.7969 38.948 11.9551L12.9427 22.7269C12.5608 22.885 12.2804 23.1802 12.1014 23.6122C11.9448 23.9902 11.9456 24.3702 12.1038 24.752L22.8756 50.7574C23.0338 51.1393 23.3098 51.4276 23.7036 51.6224C24.1198 51.7631 24.5189 51.7544 24.9008 51.5963Z" fill="#E3E3E3"/>
<mask id="path-4-outside-1_14_32" maskUnits="userSpaceOnUse" x="8.5" y="12.875" width="47" height="42" fill="black">
<rect fill="white" x="8.5" y="12.875" width="47" height="42"/>
<path d="M10.0771 52.875V14.175H18.6771L31.7921 29.8162L44.8534 14.175H53.5071V52.875H45.1221V26.9137L31.7921 42.8237L18.4084 26.9675V52.875H10.0771Z"/>
</mask>
<path d="M10.0771 52.875V14.175H18.6771L31.7921 29.8162L44.8534 14.175H53.5071V52.875H45.1221V26.9137L31.7921 42.8237L18.4084 26.9675V52.875H10.0771Z" fill="#E3E3E3"/>
<path d="M10.0771 52.875H8.82714V54.125H10.0771V52.875ZM10.0771 14.175V12.925H8.82714V14.175H10.0771ZM18.6771 14.175L19.635 13.3719L19.2603 12.925H18.6771V14.175ZM31.7921 29.8162L30.8343 30.6194L31.7941 31.7641L32.7516 30.6175L31.7921 29.8162ZM44.8534 14.175V12.925H44.2687L43.8939 13.3738L44.8534 14.175ZM53.5071 14.175H54.7571V12.925H53.5071V14.175ZM53.5071 52.875V54.125H54.7571V52.875H53.5071ZM45.1221 52.875H43.8721V54.125H45.1221V52.875ZM45.1221 26.9137H46.3721V23.4754L44.164 26.111L45.1221 26.9137ZM31.7921 42.8237L30.8369 43.63L31.7957 44.7659L32.7503 43.6265L31.7921 42.8237ZM18.4084 26.9675L19.3636 26.1612L17.1584 23.5486V26.9675H18.4084ZM18.4084 52.875V54.125H19.6584V52.875H18.4084ZM10.0771 52.875H11.3271V14.175H10.0771H8.82714V52.875H10.0771ZM10.0771 14.175V15.425H18.6771V14.175V12.925H10.0771V14.175ZM18.6771 14.175L17.7193 14.9781L30.8343 30.6194L31.7921 29.8162L32.75 29.0131L19.635 13.3719L18.6771 14.175ZM31.7921 29.8162L32.7516 30.6175L45.8129 14.9762L44.8534 14.175L43.8939 13.3738L30.8327 29.015L31.7921 29.8162ZM44.8534 14.175V15.425H53.5071V14.175V12.925H44.8534V14.175ZM53.5071 14.175H52.2571V52.875H53.5071H54.7571V14.175H53.5071ZM53.5071 52.875V51.625H45.1221V52.875V54.125H53.5071V52.875ZM45.1221 52.875H46.3721V26.9137H45.1221H43.8721V52.875H45.1221ZM45.1221 26.9137L44.164 26.111L30.834 42.021L31.7921 42.8237L32.7503 43.6265L46.0803 27.7165L45.1221 26.9137ZM31.7921 42.8237L32.7474 42.0175L19.3636 26.1612L18.4084 26.9675L17.4532 27.7738L30.8369 43.63L31.7921 42.8237ZM18.4084 26.9675H17.1584V52.875H18.4084H19.6584V26.9675H18.4084ZM18.4084 52.875V51.625H10.0771V52.875V54.125H18.4084V52.875Z" fill="#202020" mask="url(#path-4-outside-1_14_32)"/>
</g>
<defs>
<clipPath id="clip0_14_32">
<rect width="64" height="64" fill="white"/>
</clipPath>
</defs>
</svg>
